<svg height="512" viewBox="0 0 64 64" width="512" xmlns="http://www.w3.org/2000/svg"><g id="flat"><path d="m8 32a14 14 0 0 1 14-14h20a14 14 0 0 1 14 14z" fill="#ffd782"/><rect fill="#5f79ba" height="4" rx="2" width="58" x="3" y="41"/><rect fill="#5f79ba" height="4" rx="2" width="20" x="22" y="53"/><path d="m29 45h6v8h-6z" fill="#50b4f8"/><path d="m26.01 18s-.875-6 6-6 6-5 6-5 6 7.25 1 11z" fill="#db527d"/><g fill="#e33e5c"><path d="m16 23h4v2h-4z"/><path d="m25 21h4v2h-4z"/><path d="m35 23h4v2h-4z"/><path d="m43 21h4v2h-4z"/></g><path d="m53 29a3 3 0 0 0 -3 3 3 3 0 0 0 -6 0 3 3 0 0 0 -6 0 3 3 0 0 0 -6 0 3 3 0 0 0 -6 0 3 3 0 0 0 -6 0 3 3 0 0 0 -6 0 3 3 0 0 0 -6 0l2 9h44l2-9a3 3 0 0 0 -3-3z" fill="#d3843d"/><path d="m29 29a3 3 0 0 1 3 3v9a0 0 0 0 1 0 0h-6a0 0 0 0 1 0 0v-9a3 3 0 0 1 3-3z" fill="#ad6327"/><path d="m14 41h-4l-2-9a3 3 0 0 1 3-3 3 3 0 0 1 3 3z" fill="#d3843d"/><path d="m17 29a3 3 0 0 1 3 3v9a0 0 0 0 1 0 0h-6a0 0 0 0 1 0 0v-9a3 3 0 0 1 3-3z" fill="#ad6327"/><path d="m23 29a3 3 0 0 1 3 3v9a0 0 0 0 1 0 0h-6a0 0 0 0 1 0 0v-9a3 3 0 0 1 3-3z" fill="#d3843d"/><path d="m54 41h-4v-9a3 3 0 0 1 3-3 3 3 0 0 1 3 3z" fill="#ad6327"/><path d="m35 29a3 3 0 0 1 3 3v9a0 0 0 0 1 0 0h-6a0 0 0 0 1 0 0v-9a3 3 0 0 1 3-3z" fill="#d3843d"/><path d="m41 29a3 3 0 0 1 3 3v9a0 0 0 0 1 0 0h-6a0 0 0 0 1 0 0v-9a3 3 0 0 1 3-3z" fill="#ad6327"/><path d="m47 29a3 3 0 0 1 3 3v9a0 0 0 0 1 0 0h-6a0 0 0 0 1 0 0v-9a3 3 0 0 1 3-3z" fill="#d3843d"/></g></svg>